<svg width="200" height="300" viewBox="0 0 200 300" fill="none" xmlns="http://www.w3.org/2000/svg">
  <rect width="200" height="300" fill="#0f172a"/>
  <circle cx="100" cy="120" r="40" fill="none" stroke="white" stroke-width="2"/>
  <path d="M100 80C82.3 80 68 94.3 68 112C68 129.7 82.3 144 100 144C117.7 144 132 129.7 132 112C132 94.3 117.7 80 100 80ZM100 140C84.5 140 72 127.5 72 112C72 96.5 84.5 84 100 84C115.5 84 128 96.5 128 112C128 127.5 115.5 140 100 140Z" fill="white"/>
  <path d="M100 84C88.9543 84 80 92.9543 80 104C80 115.046 88.9543 124 100 124C111.046 124 120 115.046 120 104C120 92.9543 111.046 84 100 84Z" fill="white"/>
  <text x="100" y="200" text-anchor="middle" fill="white" font-family="serif" font-size="16">THE MOON</text>
  <text x="100" y="230" text-anchor="middle" fill="white" font-family="sans-serif" font-size="10">Mystery • Intuition • Dreams</text>
</svg>
